<svg version="1.1" xmlns="http://www.w3.org/2000/svg" viewBox="0 0 250 250"><desc>Created with Snap</desc><defs></defs><g transform="matrix(0.0416,0,0,0.0416,55.1241,138.9411)"><g transform="matrix(13.568,0,0,13.568,-1035.265,-3048.449)">
<g id="gSkw5y12u6zs">
	<g>
		<path d="M361.85498,132.95007l-21.40002-73.41016l-73.41003-21.3999l-66.54004-36.5l-0.5-0.28003l-67.04993,36.78003
			l-73.41003,21.3999l-21.3999,73.41016L1.63501,199.49011l-0.27002,0.51001l36.78003,67.03979l21.3999,73.42017l73.41003,21.3999
			l66.53992,36.5l0.51001,0.28003l67.04004-36.78003l73.41003-21.3999l21.40002-73.42017l36.51001-66.53979l0.27002-0.5
			L361.85498,132.95007z M367.20496,147.07019l17.91003,32.65991l-4.81006,16.51001l-13.71997-47.05005L367.20496,147.07019z
			 M43.21484,217.17004l-8.70996,29.88013l-13.70996-47.05005l13.70996-47.05005l8.70996,29.87988l-9.13989,16.66016
			l-0.28003,0.51001L43.21484,217.17004z M36.19495,200.00012l7.85999-14.31006l4.16992,14.31006l-4.17993,14.30981
			L36.19495,200.00012z M309.20496,96.10999l12.0199,6.59009l9.53003,32.67993L309.20496,96.10999z M307.32495,92.67004
			l-7.17004-13.06006l15.67004,4.56006l4.57007,15.67017L307.32495,92.67004z M317.5249,82.4801l-18.80005-5.47998
			l-14.96997-27.29004l42.95996,23.57007l23.58008,42.96997l-27.29004-14.97998L317.5249,82.4801z M303.88501,90.78992
			L264.625,69.25012l32.66992,9.52002L303.88501,90.78992z M203.76489,49.30994l13.16003-3.82983l29.83997,16.36987
			L203.76489,49.30994z M200.00488,48.22009l-14.31995-4.16992l14.31995-7.8501l14.31006,7.8501L200.00488,48.22009z
			 M200.50488,34.07019l-0.5-0.27002l-17.16992,9.40991l-29.89001-8.70996l47.05994-13.71021l47.05005,13.71021l-29.89001,8.70996
			L200.50488,34.07019z M183.07495,45.4801l13.15991,3.82983l-43,12.54004L183.07495,45.4801z M96.11499,90.78992l6.58997-12.01978
			l32.67004-9.52002L96.11499,90.78992z M92.67493,92.67004l-13.06995,7.17017l4.56995-15.67017l15.67004-4.56006L92.67493,92.67004
			z M101.2749,77.00012L82.47485,82.4801l-5.47998,18.79004l-27.28992,14.97998l23.57996-42.96997l42.95996-23.57007
			L101.2749,77.00012z M78.7749,102.70007l12.02002-6.59009L69.25488,135.37L78.7749,102.70007z M45.48486,183.07996
			l16.37012-29.83984l-12.54004,43L45.48486,183.07996z M49.31494,203.76013l12.54004,43l-16.37012-29.84009L49.31494,203.76013z
			 M90.79492,303.89001l-12.02002-6.6001L69.24487,264.62L90.79492,303.89001z M92.67493,307.32019l7.55994,13.77979
			l-15.84985-4.56006l-4.78003-16.38989L92.67493,307.32019z M82.5249,317.68005l0.16003,0.56006l18.96997,5.45996
			l14.58997,26.58984l-42.95996-23.56982l-23.57996-42.96997l27.28992,14.96997L82.5249,317.68005z M96.11499,309.21008
			l41.02002,22.5l-34.05005-9.79004L96.11499,309.21008z M195.85498,350.78992l-12.78003,3.73022l-28.34009-15.56006
			L195.85498,350.78992z M199.63501,351.88l14.48999,4.17017l-14.12012,7.75l-14.31995-7.8501L199.63501,351.88z
			 M199.49487,365.92004l0.51001,0.28003l16.98999-9.32007l30,8.63013l-46.98999,13.69995l-47.05994-13.71997l29.89001-8.70996
			L199.49487,365.92004z M216.74487,354.60999l-13.32996-3.82983l43.34998-12.63013L216.74487,354.60999z M303.88501,309.21008
			l-6.59009,12.01001l-32.66992,9.53003L303.88501,309.21008z M307.32495,307.32019l13.07007-7.17017l-4.57007,15.67017
			l-15.67004,4.56982L307.32495,307.32019z M298.72485,323.00012l18.80005-5.47998l5.47998-18.80005l27.29004-14.96997
			l-23.58008,42.96997l-42.95996,23.56982L298.72485,323.00012z M321.22485,297.28992l-12.0199,6.6001L330.74487,264.62
			L321.22485,297.28992z M338.14502,153.24011l16.36987,29.83984l-3.82996,13.16016L338.14502,153.24011z M350.68494,203.76013
			l3.82996,13.15991l-16.36987,29.84009L350.68494,203.76013z M351.7749,200.00012l4.17004-14.31006l7.85999,14.31006
			l-7.85999,14.30981L351.7749,200.00012z M365.92493,200.50012l0.28003-0.5l-9.42004-17.17017l8.70996-29.87988l13.71008,47.05005
			l-13.71008,47.05005l-8.70996-29.88013L365.92493,200.50012z M365.7749,144.47009l-0.28003,0.94995l-0.91992-3.13013
			L365.7749,144.47009z M364.39502,149.19006l-9.04004,31.03003l-19.93005-36.32007L323.83496,104.13l28.33997,15.55005
			l7.72998,14.08008L364.39502,149.19006z M357.18494,124.43005l-1.56995-2.87012l0.86987,0.49023L357.18494,124.43005z
			 M355.65491,119.19006l-1.93005-1.06006l-23.56995-42.96997l15.07996,8.28003L355.65491,119.19006z M338.76489,61.24011
			l5.63013,19.33984l-16.13013-8.84985l-8.83997-16.13013L338.76489,61.24011z M316.56494,54.76013l8.27002,15.08008
			l-42.96997-23.57007l-1.05005-1.92993L316.56494,54.76013z M277.95496,43.51013l0.47998,0.87988l-2.87-1.56982L277.95496,43.51013
			z M280.31494,47.82019l15.55005,28.33984l-39.77002-11.58984L219.7749,44.65002l31.04004-9.05005l15.41992,4.49023
			L280.31494,47.82019z M255.53491,34.22009l2.17004,1.19995l-3.13-0.91992L255.53491,34.22009z M200.00488,3.76013
			l52.92004,29.02979l-2.10999,0.62012l-68.47998-19.95996L200.00488,3.76013z M179.72485,14.88l16.52002,4.81006
			l-53.94995,15.72998L179.72485,14.88z M122.04492,43.51013l2.39001-0.68994l-2.87,1.56982L122.04492,43.51013z
			 M133.76489,40.09021l15.42004-4.49023l31.03992,9.05005l-36.31995,19.92017l-39.7699,11.58984l15.54993-28.33984
			L133.76489,40.09021z M119.19495,44.34021l-1.05994,1.92993L75.16492,69.84021l8.27002-15.07007L119.19495,44.34021z
			 M61.23486,61.24011l19.34009-5.64014L71.73486,71.7301l-16.12988,8.84985L61.23486,61.24011z M54.76489,83.43005
			l15.08008-8.27002L46.2749,118.13l-1.92993,1.06006L54.76489,83.43005z M43.51489,122.05017l0.87012-0.47998l-1.57007,2.85986
			L43.51489,122.05017z M40.09497,133.76013l7.72998-14.08008L76.16492,104.13l-11.58997,39.77002l-19.92993,36.32007
			l-9.04004-31.03003L40.09497,133.76013z M35.42493,142.28992l-0.92004,3.14014l-0.28003-0.95996L35.42493,142.28992z
			 M32.79492,147.07996l0.62,2.11011l-13.71997,47.05005l-4.80994-16.51001L32.79492,147.07996z M3.76489,200.00012
			l9.69006-17.65991l5.14001,17.65991l-5.14001,17.65991L3.76489,200.00012z M32.79492,252.92004l-17.90991-32.6499
			l4.80994-16.51001l13.71997,47.0498L32.79492,252.92004z M34.22485,255.53015l0.28003-0.95996l0.92004,3.13989L34.22485,255.53015
			z M35.60498,250.80994l9.04004-31.02979l19.92993,36.31006l11.58997,39.76978l-28.33997-15.55005l-7.72998-14.07983
			L35.60498,250.80994z M42.81494,275.57019l1.57007,2.85986l-0.87012-0.47998L42.81494,275.57019z M44.34497,280.80994
			l1.92993,1.05005l23.57007,42.96997l-15.08008-8.27002L44.34497,280.80994z M61.23486,338.76013l-5.62988-19.34009
			l16.12988,8.8501l8.84009,16.12988L61.23486,338.76013z M83.43494,345.2301l-8.27002-15.08008l42.97009,23.57007l1.05994,1.92993
			L83.43494,345.2301z M122.04492,356.4801l-0.47998-0.87012l2.87,1.57007L122.04492,356.4801z M119.68494,352.17004
			l-15.17004-27.6499l41.02002,11.80005l34.68994,19.02979l-31.03992,9.04004l-15.42004-4.48999L119.68494,352.17004z
			 M144.46484,365.77014l-2.16992-1.19019l3.13,0.91016L144.46484,365.77014z M147.07495,367.20007l2.10999-0.60986
			l47.05994,13.70996l-16.52002,4.80981L147.07495,367.20007z M200.00488,396.24011l-17.66992-9.68994l17.66992-5.15015
			l17.66003,5.15015L200.00488,396.24011z M220.2749,385.10999l-16.51001-4.80981l47.02002-13.7002l2.13,0.61011L220.2749,385.10999
			z M255.5249,365.77014l-0.95996-0.28003l3.14001-0.91016L255.5249,365.77014z M277.95496,356.4801l-2.39001,0.69995l2.87-1.57007
			L277.95496,356.4801z M266.23486,359.90002l-15.45996,4.51001l-31.15991-8.96997l36.47998-20.02002l39.77002-11.59009
			l-15.55005,28.34009L266.23486,359.90002z M280.81494,355.65002l1.05005-1.92993l42.96997-23.57007l-8.27002,15.08008
			L280.81494,355.65002z M338.76489,338.76013l-19.33997,5.63989l8.83997-16.12988l16.13013-8.8501L338.76489,338.76013z
			 M345.23486,316.55994l-15.07996,8.27002l23.56995-42.96997l1.93005-1.05005L345.23486,316.55994z M356.48486,277.95007
			l-0.86987,0.47998l1.56995-2.85986L356.48486,277.95007z M359.90491,266.2301l-7.72998,14.07983l-28.33997,15.55005
			l11.58997-39.76978l19.93005-36.31006l9.04004,31.02979L359.90491,266.2301z M364.57495,257.71008l0.91992-3.13989
			l0.28003,0.95996L364.57495,257.71008z M367.20496,252.92004l-0.62-2.11011l13.71997-47.0498l4.81006,16.51001
			L367.20496,252.92004z M386.54492,217.66003l-5.14001-17.65991l5.14001-17.67017l9.68994,17.67017L386.54492,217.66003z" fill="#6daedb" style=""></path>
	</g>
</g>


<desc>Created with Snap</desc><defs></defs></g><g><g transform="matrix(1.024,0,0,-1.024,0,0)"><path d="M433 -2L431 -6Q424 -6 409 -5Q394 -4 377 -3Q360 -2 345 -1Q330 0 323 0L266 0Q259 0 244 -1Q229 -2 212 -3Q196 -4 181 -5Q166 -6 159 -6L157 -2L160 16L165 20Q181 20 201 21Q221 23 229 30Q237 37 246 48Q255 59 257 87Q258 94 258 103Q259 113 259 127Q260 141 260 161Q260 181 260 211L260 414Q260 479 259 529Q258 580 257 606L246 606Q196 606 164 605Q132 605 112 603Q93 602 83 600Q74 598 70 595Q48 583 43 543L39 539L16 539L23 653L27 662L33 665Q41 662 68 659Q95 657 127 656Q159 655 188 654Q218 654 231 654L357 654Q370 654 399 654Q429 655 461 656Q493 657 520 659Q547 662 555 665L561 662L565 653L573 539L549 539L545 543Q540 583 518 595Q514 598 504 600Q495 602 475 603Q456 605 424 605Q392 606 343 606L332 606Q331 577 330 530Q330 483 330 415L330 231Q330 195 330 172Q330 150 330 135Q331 120 331 109Q332 99 333 87Q335 59 344 48Q353 37 361 30Q369 23 389 21Q409 20 425 20L430 16L433 -2ZM1076 293L1069 269L1053 262Q999 262 942 261Q885 260 830 260L712 260Q711 253 711 246Q711 240 711 234Q711 196 722 161Q733 127 756 101Q780 75 817 59Q854 44 907 44Q938 44 973 50Q1009 57 1039 74L1049 68L1049 50L1039 39Q1015 20 971 4Q927 -11 873 -11Q820 -11 776 6Q733 24 701 56Q670 88 652 132Q635 176 635 230Q635 285 653 330Q671 375 702 407Q734 439 776 457Q819 475 868 475Q894 475 926 468Q959 461 989 441Q1019 422 1043 386Q1067 351 1076 293ZM869 430Q837 430 811 419Q786 409 766 391Q747 374 734 350Q722 327 717 301L756 301Q810 301 861 302Q912 304 968 307Q981 308 985 314Q990 320 990 328Q990 334 989 339Q988 344 986 349Q975 387 945 408Q915 430 869 430ZM1444 -3L1438 7Q1441 18 1442 40Q1444 62 1447 81L1446 84Q1433 66 1415 49Q1397 32 1375 18Q1354 5 1329 -3Q1305 -11 1278 -11Q1247 -11 1223 0Q1199 11 1183 29Q1167 47 1159 71Q1151 95 1151 121Q1151 158 1168 185Q1185 213 1213 231Q1239 247 1274 257Q1310 267 1343 271Q1377 276 1404 277Q1431 279 1440 279L1454 279Q1453 316 1450 337Q1447 359 1442 373Q1431 403 1404 416Q1377 430 1339 430Q1323 430 1304 427Q1286 424 1269 416Q1253 408 1241 393Q1229 379 1227 356L1223 353L1201 353L1192 427L1195 433Q1200 439 1216 446Q1232 453 1253 459Q1275 466 1301 470Q1328 475 1354 475Q1390 475 1421 465Q1452 456 1474 437Q1497 418 1510 389Q1523 361 1523 323Q1523 281 1522 248Q1522 216 1521 188Q1520 161 1519 134Q1519 108 1519 78Q1521 55 1524 44Q1527 34 1534 29Q1542 21 1557 19Q1573 18 1589 18L1593 14L1594 0L1593 -4Q1575 -2 1554 -1Q1533 0 1513 0Q1475 0 1444 -3ZM1438 115Q1441 120 1444 127Q1448 134 1449 144L1454 244L1445 244Q1405 244 1365 239Q1325 235 1293 222Q1262 209 1242 186Q1222 163 1222 127Q1222 89 1244 66Q1266 44 1301 44Q1322 44 1343 51Q1364 58 1382 69Q1401 80 1415 92Q1430 104 1438 115ZM1644 438L1644 452L1648 455L1666 455Q1683 455 1709 455Q1735 456 1754 459L1789 464L1795 455Q1793 449 1791 439Q1790 430 1788 418Q1787 407 1786 396Q1785 385 1785 377L1788 375Q1799 395 1813 413Q1828 432 1847 445Q1866 459 1890 467Q1914 475 1945 475Q1971 475 1996 468Q2021 462 2042 448Q2064 435 2080 413Q2097 392 2106 362Q2118 384 2132 404Q2147 425 2166 440Q2186 456 2211 465Q2237 475 2270 475Q2299 475 2326 467Q2354 459 2376 442Q2399 425 2415 399Q2432 373 2438 336Q2443 310 2443 281Q2444 252 2444 223L2444 78Q2444 55 2448 44Q2452 34 2459 29Q2467 21 2482 19Q2498 18 2514 18L2518 14L2520 0L2518 -4Q2500 -2 2479 -1Q2459 0 2438 0Q2401 0 2370 -3L2363 7Q2367 20 2369 41Q2371 62 2372 78Q2373 93 2373 115Q2374 137 2374 159Q2375 182 2375 202Q2375 222 2375 233Q2375 253 2373 283Q2372 314 2367 335Q2357 376 2326 397Q2296 418 2258 418Q2230 418 2206 407Q2183 397 2165 381Q2147 366 2134 347Q2122 328 2116 311Q2118 289 2118 267Q2119 245 2119 223L2119 78Q2119 57 2123 46Q2127 36 2135 29Q2143 22 2157 20Q2172 18 2187 18L2192 13L2194 0L2192 -4Q2185 -4 2171 -3Q2157 -2 2141 -2Q2125 -1 2111 -1Q2097 0 2090 0L2076 0Q2069 0 2054 -1Q2040 -1 2024 -2Q2009 -2 1994 -3Q1980 -4 1973 -4L1971 0L1973 14L1977 18Q1993 18 2008 19Q2024 21 2032 29Q2040 36 2042 47Q2044 58 2046 78Q2047 93 2047 115Q2048 137 2048 159Q2049 182 2049 202Q2050 222 2050 233Q2050 243 2050 256Q2050 270 2049 284Q2048 298 2046 311Q2045 324 2042 335Q2031 376 2001 397Q1971 418 1933 418Q1900 418 1873 403Q1846 389 1826 368Q1807 348 1796 325Q1786 303 1786 287L1786 175Q1786 153 1786 139Q1787 125 1787 115Q1788 105 1788 96Q1789 88 1790 78Q1792 57 1794 46Q1797 36 1805 29Q1813 22 1827 20Q1842 18 1857 18L1862 13L1864 0L1862 -4Q1855 -4 1841 -3Q1827 -2 1811 -2Q1795 -1 1781 -1Q1767 0 1760 0L1746 0Q1739 0 1724 -1Q1710 -1 1694 -2Q1679 -2 1664 -3Q1650 -4 1643 -4L1642 0L1643 14L1647 18Q1663 18 1678 19Q1694 21 1702 29Q1710 36 1712 47Q1715 58 1717 78Q1718 94 1719 110Q1720 127 1720 163L1720 286Q1720 307 1720 321Q1720 336 1719 347Q1719 358 1718 367Q1718 376 1717 386Q1715 397 1711 405Q1707 414 1704 417Q1694 429 1679 431Q1664 434 1648 434L1644 438ZM2872 151L2875 147Q2876 127 2886 108Q2897 89 2916 74Q2936 60 2964 51Q2993 42 3030 42Q3075 42 3105 55Q3135 69 3153 90Q3171 111 3178 136Q3186 161 3186 185Q3186 212 3177 238Q3169 265 3152 285Q3135 306 3109 319Q3083 332 3048 332L3016 332L3011 336L3008 364L3013 369L3031 369Q3060 369 3082 380Q3105 392 3120 410Q3136 429 3144 453Q3152 478 3152 504Q3152 525 3146 544Q3140 564 3126 579Q3112 594 3087 603Q3063 612 3027 612Q2991 612 2967 602Q2944 593 2929 575Q2914 558 2906 533Q2898 509 2894 478L2890 474L2857 474L2845 546L2847 555Q2857 574 2874 594Q2892 614 2916 629Q2941 645 2973 655Q3005 665 3045 665Q3079 665 3112 655Q3145 646 3170 627Q3196 608 3212 579Q3228 550 3228 511Q3228 480 3219 455Q3210 430 3196 411Q3182 392 3164 379Q3147 367 3131 361L3131 357Q3191 346 3226 299Q3262 252 3262 189Q3262 145 3244 108Q3227 71 3195 44Q3164 18 3119 3Q3074 -11 3020 -11Q2892 -11 2829 80L2828 89L2839 151L2872 151Z" fill="#173753" style=""></path></g></g></g></svg>